<?xml version="1.0" encoding="utf-8"?>
<!-- Generator: Adobe Illustrator 16.0.0, SVG Export Plug-In . SVG Version: 6.00 Build 0)  -->
<!DOCTYPE svg PUBLIC "-//W3C//DTD SVG 1.1//EN" "http://www.w3.org/Graphics/SVG/1.1/DTD/svg11.dtd">
<svg version="1.1" id="Calque_1" xmlns="http://www.w3.org/2000/svg" xmlns:xlink="http://www.w3.org/1999/xlink" x="0px" y="0px"
	 width="841.89px" height="595.28px" viewBox="0 0 841.89 595.28" enable-background="new 0 0 841.89 595.28" xml:space="preserve">
<g>
	<polygon fill="#FBE5D8" points="410.12,275.546 408.408,268.582 401.186,267.334 	"/>
	<polygon fill="#FAD9BE" points="410.12,275.546 408.408,268.582 411.194,270.54 416.505,279.651 	"/>
	<polygon fill="#F4A08C" points="401.186,267.334 399.937,266.092 400.894,265.138 408.408,268.582 	"/>
	<polygon fill="#EA887F" points="417.058,283.989 412.109,272.168 409.104,270.987 	"/>
	<polygon fill="#ED8D7A" points="424.191,283.604 412.109,271.564 412.109,275.792 	"/>
	<polygon fill="#F3956F" points="415.593,232.666 414.165,231.396 414.104,222.81 423.623,232.29 	"/>
	<polygon fill="#EB6255" points="415.593,232.666 423.623,232.29 429.878,246.065 	"/>
	<polygon fill="#EF8771" points="423.623,232.29 440.834,249.438 429.878,246.065 	"/>
	<polygon fill="#EB6257" points="429.878,246.065 440.834,249.438 446.769,262.897 	"/>
	<polygon fill="#EF794C" points="414.165,213.673 408.22,223.557 408.22,212.517 	"/>
	<polygon fill="#F59F6B" points="408.22,223.557 414.165,213.673 414.165,228.944 	"/>
	<polygon fill="#EB6255" points="408.22,223.557 414.165,228.944 408.812,243.092 	"/>
	<polygon fill="#EF8075" points="414.165,228.944 414.165,253.197 408.812,243.092 	"/>
	<polygon fill="#ED7987" points="408.812,243.092 414.165,253.197 408.812,266.894 	"/>
	<polygon fill="#F9C2AA" points="408.812,266.894 414.165,253.197 413.657,273.183 	"/>
	<polygon fill="#F09494" points="408.812,266.894 413.607,295.341 413.657,273.183 	"/>
	<polyline fill="#FAD8BE" points="413.607,295.341 408.22,287.442 408.812,266.894 	"/>
	<polyline fill="#F9E4D9" points="413.657,295.414 408.22,287.442 407.234,301.705 413.607,295.341 	"/>
	<path fill="#F9E4D9" d="M407.234,301.705"/>
	<polygon fill="#F09494" points="418.277,301.705 407.234,301.705 413.607,295.341 	"/>
	<polygon fill="#FAE4D6" points="427.243,301.705 431.195,310.832 423.134,306.267 	"/>
	<polygon fill="#F09496" points="427.243,301.705 415.107,304.276 423.134,306.267 	"/>
	<polygon fill="#ED777C" points="427.243,301.705 405.356,301.705 415.107,304.276 	"/>
	<polygon fill="#ED7786" points="423.134,306.267 415.107,304.276 408.022,305.799 	"/>
	<polygon fill="#FBE5D8" points="408.022,305.799 402.147,302.25 396.434,306.267 	"/>
	<polygon fill="#F7C9BB" points="408.022,305.799 402.147,302.25 405.356,301.705 415.107,304.276 	"/>
	<polygon fill="#F09393" points="396.434,306.267 394.749,306.267 394.749,304.979 402.147,302.25 	"/>
	<polyline fill="#FAD8BE" points="417.634,277.074 416.29,272.134 413.657,273.183 417.634,277.074 	"/>
	<polygon fill="#FAE4D6" points="424.191,283.604 419.918,294.332 417.058,283.989 	"/>
	<polygon fill="#F4A08C" points="424.191,283.604 412.109,275.792 417.058,283.989 	"/>
	<polygon fill="#EE8076" points="440.834,249.438 450.055,259.936 446.769,262.897 	"/>
	<polygon fill="#F09393" points="446.769,262.897 441.856,258 436.319,266.145 	"/>
	<polygon fill="#F7CABC" points="441.856,258 430.72,261.536 436.319,266.145 	"/>
	<polygon fill="#F9E4D9" points="436.319,266.145 422.362,270.479 430.72,261.536 	"/>
	<polygon fill="#ED8D7A" points="422.362,270.479 417.634,271.946 430.72,261.536 	"/>
	<polygon fill="#ED7887" points="430.517,261.694 415.032,266.513 417.634,271.946 	"/>
	<polygon fill="#F9E4D9" points="417.634,271.946 415.032,266.513 413.657,273.183 	"/>
	<polygon fill="#FAD9BE" points="413.657,273.183 415.032,266.513 413.816,266.894 	"/>
	<polygon fill="#010202" points="475.821,150.993 485.966,148.186 478.977,164.017 	"/>
	<polygon fill="#EF918F" points="485.966,148.186 474.244,134.263 475.821,150.993 	"/>
	<polygon fill="#ED6F6C" points="474.244,134.263 467.261,138.642 475.821,150.993 	"/>
	<polygon fill="#F2AFA6" points="473.12,128.535 467.261,138.642 474.244,134.263 	"/>
	<polygon fill="#F0947F" points="473.12,128.535 462.751,121.463 467.261,138.642 	"/>
	<polygon fill="#F3B5AD" points="467.261,138.642 453.848,137.968 462.751,121.463 	"/>
	<polygon fill="#EE7F76" points="467.261,138.642 453.848,137.968 452.045,142.626 	"/>
	<polygon fill="#EF8771" points="453.848,137.968 445.06,130.052 462.751,121.463 	"/>
	<polygon fill="#EB6257" points="453.848,137.968 445.06,130.052 452.045,142.626 	"/>
	<polygon fill="#EF8075" points="452.045,142.626 451.03,157.504 441.34,150.993 	"/>
	<polygon fill="#EB6654" points="441.34,150.993 445.06,130.052 452.045,142.626 	"/>
	<polygon fill="#EB7A68" points="451.03,157.504 441.34,150.993 448.324,171.316 460.046,171.316 	"/>
	<polygon fill="#EB6255" points="460.046,171.316 458.691,184.339 448.324,171.316 	"/>
	<polygon fill="#F09594" points="460.046,171.316 467.261,187.035 458.691,184.339 	"/>
	<polygon fill="#F3B5AD" points="458.691,184.339 453.285,202.923 467.261,187.035 	"/>
	<polygon fill="#F09494" points="467.261,187.035 468.496,206.347 453.285,202.923 	"/>
	<polygon fill="#EF8771" points="468.496,206.347 458.691,222.29 453.285,202.642 	"/>
	<polygon fill="#F09494" points="458.691,222.29 436.494,231.498 453.285,202.642 	"/>
	<polygon fill="#F09494" points="453.285,202.642 445.396,190.516 418.237,222.29 	"/>
	<polygon fill="#EF8075" points="418.237,222.29 436.494,231.837 453.285,202.642 	"/>
	<polygon fill="#EF8771" points="418.237,222.29 412.602,234.531 420.604,231.837 	"/>
	<polygon fill="#EB6255" points="420.604,231.837 436.494,231.837 418.237,222.29 	"/>
	<polygon fill="#EB6255" points="412.602,234.531 398.854,227.794 418.237,222.29 	"/>
	<polygon fill="#EE7F75" points="412.602,234.531 408.4,236.102 398.854,227.794 	"/>
	<polygon fill="#EF8771" points="408.4,236.102 396.037,237.9 398.854,227.794 	"/>
	<polygon fill="#EB6255" points="396.037,237.9 381.61,223.64 398.854,227.794 	"/>
	<polygon fill="#EE8871" points="381.61,223.64 375.527,218.251 399.756,203.877 	"/>
	<polygon fill="#F09494" points="398.854,227.794 399.756,203.877 381.61,223.64 	"/>
	<polygon fill="#EF8075" points="398.854,227.794 399.756,203.877 418.237,222.29 	"/>
	<polygon fill="#F0957F" points="399.756,203.877 445.396,190.516 418.237,222.29 	"/>
	<polygon fill="#F3B5AD" points="445.396,190.516 432.888,175.47 399.756,203.877 	"/>
	<polygon fill="#EF8771" points="399.756,203.877 411.814,174.234 432.888,175.47 	"/>
	<polygon fill="#EF8771" points="411.814,174.234 383.078,184.339 399.756,203.877 	"/>
	<polygon fill="#EB6255" points="383.078,184.339 375.527,218.251 399.756,203.877 	"/>
	<polygon fill="#EB6255" points="375.527,218.251 334.619,220.945 381.61,223.64 	"/>
	<polygon fill="#F09494" points="375.527,218.251 334.619,220.945 383.078,184.339 	"/>
	<path fill-rule="evenodd" clip-rule="evenodd" fill="#303031" d="M454.393,102.678c1.907,0.168,3.809,0.332,5.716,0.498
		c1.431,0.162,2.86,0.325,4.288,0.486c2.178,0.54,6.869,1.052,8.528,0.969c1.06-0.052,3.131,0.232,3.446,0.982
		c0.185,0.994-0.876,3.988-1.175,4.953c-1.043,3.368-1.002,7.774-1.6,11.79c2.052,0.403,4.583,3.355,5.38,4.955
		c0.27,0.545,1,1.53,0.761,2.397c-0.436,1.562-2.436,2.789-4.058,3.338c-3.188,1.081-7.783,0.399-11.167-0.744
		c-5.834-1.961-11.846-3.19-17.143-5.408c-2.384-0.999-7.688-1.559-6.589-4.833c0.623-0.278,1.152-0.502,2.027-0.392
		c0.358,0.048,0.712,0.1,1.07,0.152c0.757-0.104,1.859-0.509,2.598-0.346c0.425-4.322,1.607-9.435,1.28-13.973
		c-0.075-1.014-0.081-4.574,0.483-4.902C449.789,101.886,452.758,103.16,454.393,102.678z"/>
</g>
<ellipse fill="none" stroke="#434444" stroke-width="6.011" stroke-miterlimit="10" cx="428.05" cy="206.393" rx="136.084" ry="130.5"/>
<g>
	<path fill="none" stroke="#434444" stroke-width="3.0055" stroke-miterlimit="10" stroke-dasharray="3.7921,3.7921" d="
		M575.913,206.393c0,78.311-66.204,141.794-147.862,141.794c-81.662,0-147.862-63.483-147.862-141.794S346.389,64.6,428.051,64.6
		C509.709,64.6,575.913,128.082,575.913,206.393z"/>
</g>
<path fill="#3A3A3A" d="M326.117,394.527c-0.37,1.328-0.831,3.229-1.384,5.701c-0.554,2.475-1.145,5.298-1.771,8.47
	c-0.628,3.174-1.292,6.515-1.993,10.019c-0.702,3.506-1.329,6.958-1.882,10.352c-0.553,3.395-1.052,6.587-1.494,9.576
	c-0.443,2.989-0.702,5.519-0.775,7.584c-0.075,2.285-0.075,4.538,0,6.753c0.073,1.919,0.202,3.93,0.388,6.033
	c0.184,2.104,0.534,3.967,1.052,5.591c-1.256,0.591-2.363,1.013-3.321,1.273c-0.96,0.258-1.735,0.459-2.325,0.608
	c-0.739,0.147-1.367,0.222-1.882,0.222c-0.591,0-1.292-0.056-2.104-0.166c-0.811-0.11-1.55-0.498-2.214-1.162
	c-0.665-0.665-1.218-1.7-1.661-3.101c-0.443-1.402-0.589-3.432-0.443-6.089c0.075-1.771,0.352-3.969,0.83-6.587
	c0.481-2.62,1.052-5.496,1.716-8.635c0.664-3.137,1.421-6.383,2.27-9.742c0.848-3.358,1.678-6.643,2.491-9.854
	c0.811-3.21,1.567-6.255,2.27-9.134c0.7-2.878,1.309-5.351,1.827-7.417c0.665-2.657,1.401-5.757,2.214-9.3
	c1.401-6.05,3.505-15.128,6.31-27.233c0.516-0.369,1.069-0.72,1.661-1.052c0.59-0.332,1.107-0.609,1.55-0.831
	c0.516-0.293,1.033-0.515,1.55-0.664c2.361-0.886,4.041-0.996,5.037-0.332c0.996,0.664,1.567,1.993,1.716,3.985
	c0.073,1.329,0.239,3.25,0.498,5.757c0.258,2.51,0.499,5.314,0.72,8.414c0.222,3.1,0.405,6.294,0.554,9.576
	c0.146,3.284,0.221,6.329,0.221,9.134c0,1.845,0.036,4.023,0.111,6.531c0.073,2.51,0.184,5.167,0.332,7.971
	c0.147,2.807,0.332,5.665,0.554,8.58c0.221,2.917,0.479,5.702,0.775,8.358c0.294,2.657,0.609,5.093,0.941,7.307
	c0.332,2.215,0.682,4.024,1.052,5.425c0.147,0.591,0.313,1.145,0.498,1.661c0.184,0.515,0.35,1.033,0.499,1.55
	c0.443-1.771,0.941-3.875,1.494-6.311c0.554-2.436,1.144-5.037,1.771-7.805c0.627-2.768,1.235-5.607,1.827-8.524
	c0.589-2.916,1.106-5.663,1.55-8.248c0.368-2.064,0.774-4.722,1.218-7.971c0.442-3.248,0.958-6.753,1.55-10.518
	c-0.812-0.293-1.588-0.591-2.325-0.886c-0.664-0.293-1.328-0.664-1.992-1.106c-0.665-0.443-1.218-0.958-1.661-1.551
	c0.073-0.957,0.166-1.66,0.277-2.103c0.11-0.443,0.46-0.48,1.051-0.111c0.443,0.222,1.125,0.481,2.049,0.775
	c0.922,0.295,2.01,0.517,3.266,0.664c0.368-2.064,0.793-4.133,1.273-6.2c0.479-2.064,0.977-4.057,1.494-5.978
	c0.812-3.172,1.733-6.034,2.768-8.58c1.032-2.546,2.232-4.705,3.599-6.477c1.364-1.771,2.97-3.137,4.815-4.096
	c1.844-0.958,3.985-1.477,6.421-1.551c2.287,0,4.151,0.941,5.591,2.823s2.048,5.148,1.827,9.798
	c-0.149,3.471-0.868,6.587-2.159,9.354c-1.293,2.769-2.861,5.204-4.705,7.308c-1.846,2.103-3.875,3.838-6.089,5.203
	c-2.214,1.367-4.317,2.343-6.311,2.934c-0.664,3.471-1.292,6.958-1.882,10.462c-0.592,3.506-1.162,6.902-1.716,10.185
	c-0.554,3.285-1.107,6.405-1.661,9.355c-0.554,2.952-1.089,5.574-1.605,7.86c-0.518,2.214-1.07,4.612-1.66,7.195
	c-0.518,2.215-1.145,4.761-1.882,7.64c-0.739,2.878-1.514,5.904-2.325,9.077c-0.296,0.665-0.664,1.234-1.107,1.717
	c-0.442,0.479-0.885,0.867-1.328,1.162c-0.518,0.369-1.034,0.664-1.55,0.886c-1.477,0.59-2.731,0.701-3.764,0.332
	c-1.034-0.371-1.957-1.367-2.768-2.989c-0.813-1.699-1.532-3.803-2.159-6.311c-0.628-2.509-1.273-5.242-1.938-8.192
	c-0.664-3.172-1.163-6.624-1.495-10.351c-0.332-3.726-0.591-7.528-0.775-11.403c-0.186-3.875-0.314-7.731-0.388-11.569
	c-0.074-3.836-0.221-7.454-0.442-10.849c-0.37-4.429-0.739-8.396-1.107-11.901c-0.37-3.504-0.775-6.477-1.218-8.912
	c-0.296,1.479-0.628,3.139-0.996,4.981C326.965,390.727,326.56,392.608,326.117,394.527z M363.314,389.878
	c-0.369,1.402-0.664,2.73-0.885,3.985c1.771-1.033,3.432-2.342,4.981-3.931c1.55-1.586,2.878-3.266,3.985-5.037
	c1.107-1.771,1.974-3.542,2.602-5.313c0.627-1.771,0.978-3.394,1.052-4.871c0.073-1.033-0.02-1.863-0.276-2.491
	c-0.26-0.625-0.72-0.94-1.384-0.94c-0.37,0-0.941,0.204-1.717,0.608c-0.774,0.406-1.643,1.257-2.602,2.546
	c-0.96,1.292-1.937,3.155-2.934,5.591C365.142,382.46,364.2,385.744,363.314,389.878z"/>
<path fill="#3A3A3A" d="M395.391,448.074c-0.739,2.807-1.735,5.425-2.989,7.86c-1.256,2.436-2.75,4.539-4.483,6.311
	c-1.735,1.771-3.691,3.154-5.867,4.151c-2.179,0.996-4.559,1.494-7.141,1.494c-3.027,0-5.407-0.647-7.142-1.938
	c-1.735-1.289-3.026-2.895-3.874-4.815c-0.85-1.919-1.365-4.022-1.55-6.311c-0.184-2.286-0.277-4.428-0.277-6.421
	c0-1.4,0.166-2.95,0.498-4.649c0.332-1.698,0.793-3.433,1.384-5.204c0.59-1.771,1.347-3.542,2.27-5.313
	c0.922-1.771,2.011-3.394,3.267-4.871c0.442-1.255,1.124-2.362,2.048-3.321c0.922-0.958,1.992-1.753,3.21-2.38
	c1.218-0.626,2.527-1.107,3.931-1.439c1.401-0.332,2.768-0.498,4.096-0.498c0.222,0,0.424,0.038,0.609,0.11
	c0.184,0.074,0.388,0.149,0.608,0.222c0.959,0.073,2.159,0.442,3.599,1.106c1.439,0.665,2.84,1.661,4.207,2.989
	c1.364,1.329,2.526,3.008,3.487,5.037c0.958,2.032,1.438,4.484,1.438,7.362c0,0.593-0.037,1.312-0.11,2.159
	c-0.075,0.849-0.148,1.568-0.222,2.158c1.697-0.664,3.468-1.476,5.314-2.436c1.844-0.957,3.633-1.974,5.369-3.044
	c1.732-1.068,3.338-2.159,4.815-3.266c1.475-1.107,2.657-2.104,3.543-2.989c0.736-0.664,1.363-1.033,1.882-1.107
	c0.515-0.072,0.886,0.074,1.107,0.443c0.222,0.37,0.256,0.886,0.11,1.55c-0.149,0.664-0.554,1.402-1.218,2.214
	c-0.371,0.442-1.312,1.328-2.823,2.657c-1.515,1.328-3.304,2.768-5.369,4.317c-2.068,1.55-4.317,3.062-6.753,4.539
	C399.93,446.23,397.604,447.338,395.391,448.074z M369.596,450.731c0,1.328,0.073,2.64,0.222,3.93
	c0.146,1.292,0.442,2.436,0.886,3.432c0.442,0.997,1.032,1.811,1.771,2.436c0.737,0.628,1.697,0.941,2.879,0.941
	c1.328,0,2.546-0.313,3.653-0.941c1.107-0.625,2.104-1.438,2.989-2.436c0.886-0.996,1.678-2.14,2.38-3.432
	c0.7-1.29,1.31-2.639,1.827-4.041c-0.518,0.074-1.016,0.13-1.495,0.166c-0.48,0.039-1.016,0.056-1.605,0.056
	c-2.805,0-5.223-0.83-7.251-2.491c-2.03-1.66-3.598-3.78-4.705-6.365c-0.442,1.55-0.812,3.062-1.107,4.539
	C369.742,448.002,369.596,449.402,369.596,450.731z M376.681,431.246c-0.221,0.665-0.332,1.367-0.332,2.104
	c0,1.182,0.073,2.419,0.222,3.709c0.146,1.292,0.516,2.454,1.107,3.487c0.589,1.035,1.53,1.9,2.822,2.602
	c1.291,0.703,3.081,1.052,5.37,1.052c0.368,0,0.736-0.017,1.106-0.056c0.368-0.036,0.737-0.092,1.107-0.166
	c0.222-0.957,0.424-1.826,0.608-2.602c0.184-0.774,0.277-1.455,0.277-2.048c0.146-1.4,0.146-2.84,0-4.317
	c-0.148-1.477-0.426-2.823-0.83-4.041c-0.407-1.218-0.924-2.214-1.55-2.989c-0.629-0.774-1.385-1.162-2.27-1.162
	c-1.403,0-2.751,0.388-4.041,1.162C378.986,428.756,377.788,429.846,376.681,431.246z"/>
<path fill="#3A3A3A" d="M442.441,444.531c-0.371,2.288-0.72,4.467-1.052,6.532c-0.332,2.066-0.537,3.727-0.608,4.981
	c-0.076,1.846,0.256,3.174,0.996,3.985c0.736,0.813,1.55,1.218,2.436,1.218c1.031,0,2.305-0.515,3.819-1.55
	c1.511-1.033,3.116-2.325,4.815-3.875c1.696-1.55,3.394-3.247,5.093-5.092c1.696-1.844,3.266-3.599,4.705-5.259
	c1.439-1.661,2.657-3.116,3.653-4.373c0.996-1.255,1.678-2.064,2.048-2.436c0.443-0.443,0.902-0.701,1.384-0.775
	c0.479-0.071,0.866,0,1.163,0.222c0.293,0.222,0.442,0.627,0.442,1.218c0,0.593-0.297,1.328-0.886,2.214
	c-0.886,1.402-2.031,3.045-3.432,4.927c-1.404,1.882-2.954,3.819-4.649,5.812c-1.699,1.992-3.487,3.948-5.369,5.867
	c-1.883,1.921-3.765,3.616-5.646,5.093c-1.882,1.478-3.692,2.674-5.425,3.598c-1.736,0.923-3.305,1.384-4.705,1.384
	c-1.035,0-2.013-0.295-2.934-0.886c-0.925-0.592-1.755-1.367-2.491-2.324c-0.74-0.958-1.312-2.03-1.716-3.211
	c-0.408-1.179-0.574-2.361-0.498-3.543c0.072-0.515,0.183-1.4,0.332-2.656c-3.1,3.471-6.22,6.218-9.354,8.247
	c-3.139,2.03-6.145,3.045-9.023,3.045c-1.035,0-2.142-0.261-3.321-0.775c-1.183-0.515-2.234-1.365-3.154-2.546
	c-0.925-1.179-1.682-2.729-2.27-4.649c-0.589-1.919-0.811-4.244-0.665-6.975c0.222-4.279,1.072-8.341,2.547-12.178
	c1.474-3.837,3.338-7.178,5.591-10.02c2.249-2.84,4.795-5.093,7.639-6.753c2.84-1.661,5.701-2.491,8.58-2.491
	c1.253,0,2.396,0.315,3.432,0.941c1.031,0.627,1.917,1.438,2.657,2.436c0.736,0.996,1.345,2.087,1.826,3.266
	c0.479,1.181,0.83,2.288,1.052,3.321c0.515-2.141,0.997-4.244,1.439-6.311c0.442-2.064,0.886-4.022,1.328-5.867
	c0.736-2.729,1.512-5.684,2.325-8.856c0.736-2.729,1.585-5.868,2.546-9.41c0.958-3.543,2.028-7.269,3.211-11.182
	c0.736-0.591,1.439-1.033,2.104-1.329c0.664-0.293,1.29-0.515,1.882-0.664c0.664-0.222,1.29-0.332,1.882-0.332
	c0.736,0,1.4,0.094,1.993,0.276c0.589,0.185,1.087,0.665,1.494,1.439c0.404,0.775,0.682,1.938,0.83,3.487
	c0.146,1.55,0.146,3.653,0,6.311c-0.148,3.249-0.719,6.792-1.716,10.628c-0.996,3.838-2.308,7.805-3.93,11.901
	c-1.626,4.096-3.487,8.192-5.591,12.288C447.146,436.948,444.877,440.841,442.441,444.531z M435.91,445.971
	c0.293-1.4,0.569-2.805,0.83-4.207c0.256-1.4,0.57-2.84,0.94-4.317c-0.149,0.073-0.276,0.149-0.387,0.222
	c-0.111,0.073-0.242,0.149-0.388,0.221c-0.813,0.371-1.367,0.351-1.661-0.055c-0.297-0.404-0.442-1.052-0.442-1.938
	c0-0.443-0.039-1.234-0.111-2.381c-0.075-1.144-0.276-2.324-0.608-3.542s-0.83-2.286-1.494-3.211
	c-0.665-0.923-1.589-1.384-2.769-1.384c-1.699,0-3.432,0.869-5.203,2.602c-1.771,1.734-3.432,3.838-4.981,6.311
	c-1.55,2.475-2.844,5.111-3.875,7.916c-1.035,2.806-1.625,5.313-1.771,7.527c-0.149,3.543,0.294,6.089,1.329,7.639
	c1.031,1.551,2.436,2.325,4.207,2.325c1.328,0,2.784-0.515,4.372-1.55c1.585-1.033,3.136-2.286,4.65-3.764
	c1.511-1.477,2.913-2.989,4.207-4.539C434.044,448.296,435.096,447.006,435.91,445.971z"/>
<path fill="#3A3A3A" d="M497.242,444.531c-0.371,2.288-0.72,4.467-1.052,6.532c-0.332,2.066-0.537,3.727-0.609,4.981
	c-0.075,1.846,0.257,3.174,0.996,3.985c0.736,0.813,1.551,1.218,2.437,1.218c1.031,0,2.304-0.515,3.819-1.55
	c1.511-1.033,3.116-2.325,4.815-3.875c1.695-1.55,3.394-3.247,5.093-5.092c1.695-1.844,3.266-3.599,4.705-5.259
	c1.438-1.661,2.655-3.116,3.651-4.373c0.996-1.255,1.679-2.064,2.048-2.436c0.443-0.443,0.904-0.701,1.384-0.775
	c0.479-0.071,0.867,0,1.162,0.222c0.296,0.222,0.443,0.627,0.443,1.218c0,0.593-0.295,1.328-0.886,2.214
	c-0.886,1.402-2.029,3.045-3.432,4.927s-2.952,3.819-4.648,5.812c-1.699,1.992-3.487,3.948-5.369,5.867
	c-1.882,1.921-3.764,3.616-5.646,5.093c-1.883,1.478-3.692,2.674-5.425,3.598c-1.736,0.923-3.305,1.384-4.705,1.384
	c-1.035,0-2.014-0.295-2.935-0.886c-0.924-0.592-1.754-1.367-2.49-2.324c-0.74-0.958-1.312-2.03-1.716-3.211
	c-0.408-1.179-0.574-2.361-0.499-3.543c0.072-0.515,0.184-1.4,0.333-2.656c-3.101,3.471-6.221,6.218-9.355,8.247
	c-3.139,2.03-6.144,3.045-9.022,3.045c-1.035,0-2.143-0.261-3.321-0.775c-1.183-0.515-2.234-1.365-3.155-2.546
	c-0.924-1.179-1.681-2.729-2.27-4.649c-0.589-1.919-0.81-4.244-0.664-6.975c0.222-4.279,1.072-8.341,2.546-12.178
	c1.475-3.837,3.338-7.178,5.591-10.02c2.25-2.84,4.796-5.093,7.639-6.753c2.84-1.661,5.702-2.491,8.58-2.491
	c1.253,0,2.397,0.315,3.433,0.941c1.031,0.627,1.917,1.438,2.656,2.436c0.736,0.996,1.346,2.087,1.827,3.266
	c0.478,1.181,0.83,2.288,1.052,3.321c0.515-2.141,0.996-4.244,1.439-6.311c0.442-2.064,0.885-4.022,1.328-5.867
	c0.736-2.729,1.511-5.684,2.325-8.856c0.735-2.729,1.585-5.868,2.546-9.41c0.958-3.543,2.027-7.269,3.211-11.182
	c0.735-0.591,1.438-1.033,2.103-1.329c0.665-0.293,1.29-0.515,1.883-0.664c0.664-0.222,1.289-0.332,1.882-0.332
	c0.736,0,1.4,0.094,1.992,0.276c0.589,0.185,1.087,0.665,1.495,1.439c0.404,0.775,0.681,1.938,0.83,3.487
	c0.146,1.55,0.146,3.653,0,6.311c-0.149,3.249-0.72,6.792-1.716,10.628c-0.996,3.838-2.309,7.805-3.931,11.901
	c-1.625,4.096-3.486,8.192-5.59,12.288C501.947,436.948,499.678,440.841,497.242,444.531z M490.71,445.971
	c0.294-1.4,0.57-2.805,0.83-4.207c0.257-1.4,0.57-2.84,0.941-4.317c-0.149,0.073-0.276,0.149-0.388,0.222
	c-0.11,0.073-0.241,0.149-0.388,0.221c-0.813,0.371-1.367,0.351-1.66-0.055c-0.297-0.404-0.442-1.052-0.442-1.938
	c0-0.443-0.039-1.234-0.111-2.381c-0.075-1.144-0.276-2.324-0.608-3.542c-0.333-1.218-0.831-2.286-1.495-3.211
	c-0.664-0.923-1.589-1.384-2.768-1.384c-1.699,0-3.432,0.869-5.203,2.602c-1.771,1.734-3.432,3.838-4.982,6.311
	c-1.55,2.475-2.843,5.111-3.874,7.916c-1.035,2.806-1.626,5.313-1.771,7.527c-0.149,3.543,0.293,6.089,1.328,7.639
	c1.031,1.551,2.436,2.325,4.207,2.325c1.329,0,2.784-0.515,4.373-1.55c1.585-1.033,3.135-2.286,4.649-3.764
	c1.512-1.477,2.914-2.989,4.207-4.539C488.845,448.296,489.896,447.006,490.71,445.971z"/>
<path fill="#3A3A3A" d="M525.913,424.051c0.369-0.443,1.07-0.812,2.104-1.107c1.033-0.293,2.104-0.535,3.211-0.72
	c1.106-0.183,2.122-0.293,3.044-0.332c0.923-0.037,1.458-0.017,1.605,0.056c0.074,0.073-0.11,0.849-0.554,2.324
	c-0.442,1.479-0.996,3.211-1.66,5.204c-0.664,1.992-1.365,4.04-2.104,6.144s-1.292,3.819-1.661,5.148
	c-0.369,1.328-0.812,2.823-1.328,4.483c-0.517,1.661-0.978,3.284-1.384,4.871c-0.406,1.589-0.683,3.083-0.83,4.483
	c-0.147,1.402-0.037,2.475,0.332,3.211c0.369,0.886,0.774,1.494,1.218,1.826c0.442,0.333,0.922,0.499,1.439,0.499
	c1.476,0,3.339-0.812,5.59-2.436c2.252-1.622,4.539-3.56,6.864-5.812c2.325-2.251,4.483-4.539,6.477-6.864
	c1.993-2.324,3.469-4.188,4.429-5.591c0.59-0.735,1.199-1.218,1.826-1.438c0.627-0.222,1.145-0.183,1.55,0.11
	c0.406,0.295,0.628,0.775,0.664,1.439c0.037,0.664-0.202,1.438-0.72,2.324c-1.181,2.067-2.915,4.522-5.203,7.362
	c-2.288,2.842-4.724,5.574-7.307,8.192c-2.583,2.62-5.11,4.854-7.583,6.698c-2.473,1.843-4.483,2.805-6.034,2.878
	c-1.254,0.072-2.49-0.129-3.708-0.608c-1.218-0.481-2.325-1.145-3.321-1.993c-0.997-0.847-1.827-1.843-2.491-2.989
	c-0.664-1.144-1.033-2.341-1.107-3.598c-0.22-1.844-0.22-4.373,0-7.584c0.222-3.21,0.628-6.492,1.218-9.853
	c0.591-3.358,1.348-6.549,2.27-9.576C523.681,427.777,524.732,425.528,525.913,424.051z M541.191,400.47
	c-0.222,0.813-0.646,1.605-1.273,2.38c-0.627,0.775-1.328,1.402-2.104,1.883c-0.775,0.481-1.568,0.793-2.38,0.94
	c-0.812,0.149-1.477,0-1.993-0.442c-1.55-1.18-2.361-2.452-2.436-3.819c-0.074-1.366,0.259-2.657,0.996-3.875
	c0.738-1.218,1.661-2.251,2.768-3.1c1.107-0.848,2.067-1.346,2.879-1.495c0.812-0.147,1.494,0.019,2.048,0.498
	c0.554,0.481,0.979,1.107,1.273,1.883c0.295,0.774,0.461,1.644,0.498,2.602C541.505,398.883,541.412,399.733,541.191,400.47z"/>
</svg>
