<?xml version="1.0" encoding="utf-8"?>
<!-- Generator: Adobe Illustrator 16.0.0, SVG Export Plug-In . SVG Version: 6.00 Build 0)  -->
<!DOCTYPE svg PUBLIC "-//W3C//DTD SVG 1.1//EN" "http://www.w3.org/Graphics/SVG/1.1/DTD/svg11.dtd">
<svg version="1.1" id="Calque_1" xmlns="http://www.w3.org/2000/svg" xmlns:xlink="http://www.w3.org/1999/xlink" x="0px" y="0px"
	 width="841.89px" height="595.28px" viewBox="0 0 841.89 595.28" enable-background="new 0 0 841.89 595.28" xml:space="preserve">
<polygon fill="#FBE5D8" points="232.261,435.928 228.238,419.502 211.262,416.567 "/>
<polygon fill="#FAD9BE" points="232.261,435.928 228.238,419.502 234.781,424.13 247.263,445.611 "/>
<polygon fill="#F4A08C" points="211.262,416.567 208.329,413.638 210.578,411.381 228.238,419.502 "/>
<polygon fill="#EA887F" points="248.563,455.843 236.933,427.968 229.869,425.178 "/>
<polygon fill="#ED8D7A" points="265.326,454.939 236.933,426.543 236.933,436.512 "/>
<polygon fill="#F3956F" points="245.122,334.802 241.763,331.807 241.622,311.553 263.986,333.915 "/>
<polygon fill="#EB6255" points="245.122,334.802 263.986,333.915 278.688,366.401 "/>
<polygon fill="#EF8771" points="263.986,333.915 304.433,374.361 278.688,366.401 "/>
<polygon fill="#EB6257" points="278.688,366.401 304.433,374.361 318.382,406.1 "/>
<polygon fill="#EF794C" points="241.763,290.008 227.797,313.314 227.797,287.28 "/>
<polygon fill="#F59F6B" points="227.797,313.314 241.763,290.008 241.763,326.024 "/>
<polygon fill="#EB6255" points="227.797,313.314 241.763,326.024 229.185,359.39 "/>
<polygon fill="#EF8075" points="241.763,326.024 241.763,383.223 229.185,359.39 "/>
<polygon fill="#ED7987" points="229.185,359.39 241.763,383.223 229.185,415.527 "/>
<polygon fill="#F9C2AA" points="229.185,415.527 241.763,383.223 240.571,430.359 "/>
<polygon fill="#F09494" points="229.185,415.527 240.454,482.618 240.571,430.359 "/>
<polyline fill="#FAD8BE" points="240.454,482.618 227.797,463.988 229.185,415.527 "/>
<polyline fill="#F9E4D9" points="240.571,482.793 227.797,463.988 225.477,497.623 240.454,482.618 "/>
<path fill="#F9E4D9" d="M225.477,497.623"/>
<polygon fill="#F09494" points="251.43,497.623 225.477,497.623 240.454,482.618 "/>
<polygon fill="#FAE4D6" points="272.497,497.623 281.785,519.152 262.836,508.388 "/>
<polygon fill="#F09496" points="272.497,497.623 243.977,503.692 262.836,508.388 "/>
<polygon fill="#ED777C" points="272.497,497.623 221.07,497.623 243.977,503.692 "/>
<polygon fill="#ED7786" points="262.836,508.388 243.977,503.692 227.327,507.284 "/>
<polygon fill="#FBE5D8" points="227.327,507.284 213.525,498.913 200.095,508.388 "/>
<polygon fill="#F7C9BB" points="227.327,507.284 213.525,498.913 221.07,497.623 243.977,503.692 "/>
<polygon fill="#F09393" points="200.095,508.388 196.141,508.388 196.141,505.351 213.525,498.913 "/>
<polyline fill="#FAD8BE" points="249.922,439.535 246.752,427.89 240.571,430.359 249.922,439.535 "/>
<polygon fill="#FAE4D6" points="265.326,454.939 255.281,480.237 248.563,455.843 "/>
<polygon fill="#F4A08C" points="265.326,454.939 236.933,436.512 248.563,455.843 "/>
<polygon fill="#EE8076" points="304.433,374.361 326.102,399.111 318.382,406.1 "/>
<polygon fill="#F09393" points="318.382,406.1 306.834,394.552 293.827,413.759 "/>
<polygon fill="#F7CABC" points="306.834,394.552 280.662,402.886 293.827,413.759 "/>
<polygon fill="#F9E4D9" points="293.827,413.759 261.027,423.979 280.662,402.886 "/>
<polygon fill="#ED8D7A" points="261.027,423.979 249.922,427.443 280.662,402.886 "/>
<polygon fill="#ED7887" points="280.19,403.265 243.8,414.624 249.922,427.443 "/>
<polygon fill="#F9E4D9" points="249.922,427.443 243.8,414.624 240.571,430.359 "/>
<polygon fill="#FAD9BE" points="240.571,430.359 243.8,414.624 240.946,415.527 "/>
<polygon fill="#010202" points="386.652,142.177 410.489,135.553 394.068,172.895 "/>
<polygon fill="#EF918F" points="410.489,135.553 382.946,102.718 386.652,142.177 "/>
<polygon fill="#ED6F6C" points="382.946,102.718 366.529,113.047 386.652,142.177 "/>
<polygon fill="#F2AFA6" points="380.301,89.214 366.529,113.047 382.946,102.718 "/>
<polygon fill="#F0947F" points="380.301,89.214 355.936,72.53 366.529,113.047 "/>
<polygon fill="#F3B5AD" points="366.529,113.047 335.016,111.459 355.936,72.53 "/>
<polygon fill="#EE7F76" points="366.529,113.047 335.016,111.459 330.776,122.446 "/>
<polygon fill="#EF8771" points="335.016,111.459 314.363,92.788 355.936,72.53 "/>
<polygon fill="#EB6257" points="335.016,111.459 314.363,92.788 330.776,122.446 "/>
<polygon fill="#EF8075" points="330.776,122.446 328.397,157.533 305.621,142.177 "/>
<polygon fill="#EB6654" points="305.621,142.177 314.363,92.788 330.776,122.446 "/>
<polygon fill="#EB7A68" points="328.397,157.533 305.621,142.177 322.036,190.109 349.579,190.109 "/>
<polygon fill="#EB6255" points="349.579,190.109 346.401,220.825 322.036,190.109 "/>
<polygon fill="#F09594" points="349.579,190.109 366.529,227.182 346.401,220.825 "/>
<polygon fill="#F3B5AD" points="346.401,220.825 333.693,264.653 366.529,227.182 "/>
<polygon fill="#F09494" points="366.529,227.182 369.441,272.729 333.693,264.653 "/>
<polygon fill="#EF8771" points="369.441,272.729 346.401,310.331 333.693,263.99 "/>
<polygon fill="#F09494" points="346.401,310.331 294.235,332.048 333.693,263.99 "/>
<polygon fill="#F09494" points="333.693,263.99 315.151,235.389 251.333,310.331 "/>
<polygon fill="#EF8075" points="251.333,310.331 294.235,332.843 333.693,263.99 "/>
<polygon fill="#EF8771" points="251.333,310.331 238.093,339.199 256.896,332.843 "/>
<polygon fill="#EB6255" points="256.896,332.843 294.235,332.843 251.333,310.331 "/>
<polygon fill="#EB6255" points="238.093,339.199 205.785,323.311 251.333,310.331 "/>
<polygon fill="#EE7F75" points="238.093,339.199 228.216,342.903 205.785,323.311 "/>
<polygon fill="#EF8771" points="228.216,342.903 199.167,347.145 205.785,323.311 "/>
<polygon fill="#EB6255" points="199.167,347.145 165.268,313.509 205.785,323.311 "/>
<polygon fill="#EE8871" points="165.268,313.509 150.967,300.8 207.904,266.904 "/>
<polygon fill="#F09494" points="205.785,323.311 207.904,266.904 165.268,313.509 "/>
<polygon fill="#EF8075" points="205.785,323.311 207.904,266.904 251.333,310.331 "/>
<polygon fill="#F0957F" points="207.904,266.904 315.151,235.389 251.333,310.331 "/>
<polygon fill="#F3B5AD" points="315.151,235.389 285.76,199.905 207.904,266.904 "/>
<polygon fill="#EF8771" points="207.904,266.904 236.237,196.992 285.76,199.905 "/>
<polygon fill="#EF8771" points="236.237,196.992 168.711,220.825 207.904,266.904 "/>
<polygon fill="#EB6255" points="168.711,220.825 150.967,300.8 207.904,266.904 "/>
<polygon fill="#EB6255" points="150.967,300.8 54.841,307.155 165.268,313.509 "/>
<polygon fill="#F09494" points="150.967,300.8 54.841,307.155 168.711,220.825 "/>
<path fill-rule="evenodd" clip-rule="evenodd" fill="#303031" d="M342.267,27.958c4.483,0.395,8.955,0.784,13.431,1.174
	c3.364,0.382,6.722,0.766,10.081,1.146c5.117,1.276,16.142,2.482,20.037,2.288c2.49-0.123,7.362,0.544,8.106,2.315
	c0.433,2.344-2.062,9.407-2.768,11.681c-2.451,7.945-2.354,18.337-3.762,27.804c4.827,0.952,10.77,7.917,12.646,11.69
	c0.633,1.283,2.349,3.609,1.784,5.651c-1.022,3.683-5.72,6.577-9.531,7.875c-7.494,2.547-18.29,0.938-26.24-1.756
	c-13.709-4.626-27.839-7.525-40.286-12.758c-5.603-2.355-18.062-3.674-15.484-11.396c1.465-0.656,2.712-1.184,4.767-0.924
	c0.841,0.114,1.677,0.234,2.515,0.357c1.774-0.243,4.373-1.203,6.105-0.812c0.996-10.196,3.776-22.253,3.008-32.958
	c-0.175-2.391-0.189-10.788,1.138-11.56C331.446,26.092,338.427,29.098,342.267,27.958z"/>
<g>
	<path fill="#303031" d="M359.711,464.441c0.5,0.9,0.676,1.725,0.525,2.475s-0.525,1.351-1.125,1.801
		c-0.6,0.449-1.326,0.7-2.175,0.75c-0.851,0.051-1.627-0.274-2.325-0.976c-1.701-1.5-2.901-3.199-3.6-5.1
		c-0.701-1.898-1.051-3.976-1.051-6.226s0.274-4.699,0.825-7.35c0.549-2.648,1.175-5.424,1.875-8.325
		c1.299-5.198,3.023-10.448,5.175-15.75c2.149-5.299,4.699-10.099,7.65-14.399c2.948-4.299,6.174-7.749,9.675-10.351
		c3.499-2.599,7.249-3.75,11.25-3.45c2.4,0.102,4.1,1.301,5.101,3.601c0.998,2.302,1.574,5.175,1.725,8.625s-0.052,7.251-0.6,11.399
		c-0.551,4.151-1.2,8.126-1.95,11.926c-0.75,3.801-1.477,7.199-2.175,10.199c-0.701,3-1.2,5.101-1.5,6.301
		c0.6-1.898,1.949-4.25,4.05-7.051c2.1-2.798,4.599-5.648,7.5-8.55c2.899-2.899,6-5.625,9.3-8.175s6.424-4.448,9.375-5.7
		c2.948-1.249,5.498-1.624,7.65-1.125c2.148,0.502,3.574,2.25,4.274,5.25c1.1,5.101,1.475,10.177,1.125,15.226
		c-0.352,5.051-1.05,10.15-2.1,15.3c-1.05,5.151-2.175,10.376-3.375,15.675c-1.2,5.302-2.051,10.65-2.55,16.05
		c-0.601,5.501-0.802,9.675-0.601,12.525c0.199,2.85,0.949,4.776,2.25,5.774c1.299,1.001,3.226,1.2,5.775,0.601
		c2.55-0.601,5.824-1.599,9.825-3c0.998-0.398,1.875-0.45,2.625-0.15s1.274,0.75,1.574,1.351c0.301,0.6,0.324,1.301,0.075,2.1
		c-0.251,0.802-0.876,1.451-1.875,1.95c-6.899,2.7-12.251,3.998-16.05,3.899c-3.802-0.101-6.551-1.274-8.25-3.524
		c-1.701-2.25-2.677-5.3-2.925-9.15c-0.251-3.849-0.276-8.175-0.075-12.975c0.099-2.198,0.525-5.349,1.275-9.45
		c0.75-4.1,1.5-8.475,2.25-13.125s1.35-9.225,1.8-13.725s0.474-8.199,0.075-11.101c-0.401-2.899-1.376-4.649-2.926-5.25
		c-1.551-0.6-3.926,0.601-7.125,3.601c-3.201,2.901-6.25,6.352-9.149,10.35c-2.901,4.001-5.625,8.25-8.175,12.75
		c-2.551,4.5-4.901,9.025-7.051,13.575c-2.151,4.552-4.026,8.774-5.625,12.675c-2.001,4.701-3.801,9.4-5.399,14.1
		c-1.601,4.702-3.202,9.401-4.8,14.101l-0.75,1.2c-0.802,1.398-1.801,2.374-3,2.925c-1.2,0.548-2.377,0.698-3.525,0.45
		c-1.15-0.251-2.175-0.852-3.075-1.801c-0.899-0.951-1.401-2.275-1.5-3.975c1.1-7.898,2.625-15.023,4.575-21.375
		c1.95-6.35,4.024-12.549,6.225-18.6c2.199-6.05,4.324-12.274,6.375-18.676c2.049-6.398,3.773-13.598,5.176-21.6
		c0.398-2.1,0.899-4.65,1.5-7.65c0.6-3,1.073-5.873,1.425-8.625c0.349-2.749,0.398-5.1,0.149-7.05
		c-0.25-1.95-1.026-2.873-2.324-2.774c-1.2-0.099-2.752,0.775-4.65,2.625c-1.9,1.852-3.851,4.326-5.85,7.425
		c-2.002,3.101-3.926,6.651-5.775,10.649c-1.852,4.001-3.375,8.051-4.575,12.15c-0.4,1.401-0.926,3.251-1.575,5.55
		c-0.651,2.302-1.125,4.676-1.425,7.125c-0.3,2.452-0.3,4.776,0,6.976C357.461,461.542,358.31,463.241,359.711,464.441z"/>
	<path fill="#303031" d="M455.562,467.142c0,0.101,0.023,0.201,0.075,0.3c0.049,0.101,0.074,0.201,0.074,0.3
		c5.4-2.498,11.025-4.575,16.875-6.225c5.851-1.65,11.625-3.174,17.325-4.575c1.8,0,2.925,0.727,3.375,2.175
		c0.45,1.451-0.126,2.625-1.725,3.525c-3.802,1.601-7.627,3.201-11.476,4.8c-3.851,1.601-7.676,3.352-11.475,5.25
		c1.299,2.002,1.85,4.252,1.65,6.75c-0.202,2.501-0.652,4.9-1.351,7.2c-0.6,1.9-1.45,3.926-2.55,6.075
		c-1.102,2.151-2.4,4.199-3.9,6.149s-3.176,3.701-5.024,5.25c-1.852,1.552-3.727,2.677-5.625,3.375c-1.2,0.502-2.501,0.75-3.9,0.75
		c-1.401,0-2.801,0.101-4.2,0.3c-1.102-0.199-1.949-0.449-2.55-0.75c-0.6-0.3-1.301-0.848-2.1-1.649
		c-0.502-0.9-1.102-1.774-1.8-2.625c-0.701-0.849-1.2-1.774-1.5-2.775c-0.802-2.599-0.877-5.625-0.226-9.075
		c0.649-3.449,1.699-6.923,3.15-10.425c1.448-3.499,3.149-6.773,5.1-9.825c1.95-3.049,3.825-5.475,5.625-7.274
		c1.999-1.8,3.75-1.55,5.25,0.75L455.562,467.142z M454.062,478.541c-2.101-0.998-3.3-2.399-3.601-4.199
		c-1.701,3.501-2.901,7.251-3.6,11.25c-0.701,4-1.001,7.9-0.9,11.699c1.299-0.199,2.574-0.824,3.825-1.875
		c1.249-1.05,2.374-2.273,3.375-3.675c0.999-1.399,1.898-2.85,2.7-4.35c0.799-1.5,1.448-2.799,1.95-3.9
		c0.698-1.5,1.099-2.85,1.2-4.05v-0.3c-0.802-0.199-1.65-0.274-2.551-0.226C455.562,478.968,454.76,478.842,454.062,478.541z"/>
	<path fill="#303031" d="M503.562,463.392c1.299,0.201,2.499,0.651,3.601,1.35l0.75-1.5c1.099-5.7,2.374-11.325,3.824-16.875
		c1.449-5.55,2.975-11.074,4.575-16.575c0.499-1.898,1.2-4.474,2.101-7.725c0.899-3.248,2.048-6.323,3.449-9.225
		c1.399-2.899,3.125-5.25,5.176-7.051c2.048-1.8,4.523-2.148,7.425-1.05c0.998,0.701,1.699,1.351,2.1,1.95
		c0.398,0.6,0.75,1.451,1.05,2.55c0.301,1.901,0.274,4.001-0.074,6.3c-0.352,2.302-0.825,4.627-1.426,6.976
		c-0.6,2.351-1.274,4.649-2.024,6.899s-1.425,4.275-2.025,6.075c-1.701,5.101-3.727,10.425-6.075,15.976
		c-2.351,5.55-5.076,11.125-8.175,16.725c-0.899,4.601-1.725,9.176-2.475,13.725c-0.75,4.552-1.526,9.176-2.325,13.875v-0.449
		c-0.3,2.5-0.502,5.125-0.6,7.875c-0.102,2.751,0.398,5.175,1.5,7.274c1.298,0,2.873-0.724,4.725-2.175
		c1.85-1.448,3.675-3.15,5.475-5.1c1.801-1.95,3.474-3.825,5.025-5.625c1.549-1.801,2.674-3.099,3.375-3.9
		c0.799-0.6,1.599-0.874,2.4-0.825c0.799,0.052,1.448,0.326,1.949,0.825c0.5,0.502,0.773,1.15,0.825,1.95
		c0.05,0.802-0.225,1.601-0.825,2.399c-2.001,2.101-3.899,4.351-5.699,6.75c-1.801,2.4-3.75,4.65-5.851,6.75
		c-3.4,3.398-6.375,5.449-8.925,6.15c-2.55,0.698-4.701,0.424-6.45-0.825c-1.751-1.251-3.075-3.375-3.975-6.375
		c-0.9-3-1.401-6.45-1.5-10.35c-0.101-1.898-0.15-3.773-0.15-5.625c0-1.85,0.099-3.773,0.3-5.775
		c-3.101,4.2-6.325,8.051-9.675,11.55c-3.352,3.502-6.775,6.601-10.274,9.301c-0.802,0.4-1.5,0.675-2.101,0.824
		c-0.6,0.15-1.35,0.174-2.25,0.075c-0.501-0.201-0.951-0.375-1.35-0.524c-0.401-0.15-0.851-0.324-1.351-0.525
		c-1.102-0.6-1.852-1.224-2.25-1.875c-0.4-0.649-0.7-1.523-0.899-2.625c-0.101-2.7,0.323-6,1.274-9.9
		c0.949-3.899,2.3-7.725,4.051-11.475c1.748-3.75,3.773-7.174,6.074-10.275c2.3-3.098,4.699-5.25,7.2-6.449
		c1.5-0.8,3.15-1.625,4.95-2.476C499.812,463.518,501.661,463.192,503.562,463.392z M483.462,498.491
		c3.799-3.799,7.448-8.149,10.95-13.05c3.499-4.898,6.799-10.05,9.899-15.45c-0.7-0.3-1.251-0.398-1.649-0.3
		c-2.902,1.401-5.4,3.101-7.5,5.1c-2.101,2.002-3.926,4.275-5.476,6.825c-1.552,2.55-2.826,5.25-3.825,8.101
		C484.861,492.566,484.062,495.491,483.462,498.491z M513.162,493.842c-0.102,0.201-0.15,0.449-0.15,0.75
		C513.11,494.493,513.162,494.242,513.162,493.842z M529.361,424.842c0.099,0,0.15-0.05,0.15-0.15c0-0.199,0.049-0.398,0.15-0.6
		c0,0.101-0.102,0.25-0.301,0.449V424.842z"/>
	<path fill="#303031" d="M558.461,463.392c1.299,0.201,2.499,0.651,3.601,1.35l0.75-1.5c1.099-5.7,2.374-11.325,3.824-16.875
		c1.449-5.55,2.975-11.074,4.575-16.575c0.499-1.898,1.2-4.474,2.101-7.725c0.899-3.248,2.048-6.323,3.449-9.225
		c1.399-2.899,3.125-5.25,5.176-7.051c2.048-1.8,4.523-2.148,7.425-1.05c0.998,0.701,1.699,1.351,2.1,1.95
		c0.398,0.6,0.75,1.451,1.05,2.55c0.301,1.901,0.274,4.001-0.074,6.3c-0.352,2.302-0.825,4.627-1.426,6.976
		c-0.6,2.351-1.274,4.649-2.024,6.899s-1.425,4.275-2.025,6.075c-1.701,5.101-3.727,10.425-6.075,15.976
		c-2.351,5.55-5.076,11.125-8.175,16.725c-0.899,4.601-1.725,9.176-2.475,13.725c-0.75,4.552-1.526,9.176-2.325,13.875v-0.449
		c-0.3,2.5-0.502,5.125-0.6,7.875c-0.102,2.751,0.398,5.175,1.5,7.274c1.298,0,2.873-0.724,4.725-2.175
		c1.85-1.448,3.675-3.15,5.475-5.1c1.801-1.95,3.474-3.825,5.025-5.625c1.549-1.801,2.674-3.099,3.375-3.9
		c0.799-0.6,1.599-0.874,2.4-0.825c0.799,0.052,1.448,0.326,1.949,0.825c0.5,0.502,0.773,1.15,0.825,1.95
		c0.05,0.802-0.225,1.601-0.825,2.399c-2.001,2.101-3.899,4.351-5.699,6.75c-1.801,2.4-3.75,4.65-5.851,6.75
		c-3.4,3.398-6.375,5.449-8.925,6.15c-2.55,0.698-4.701,0.424-6.45-0.825c-1.751-1.251-3.075-3.375-3.975-6.375
		c-0.9-3-1.401-6.45-1.5-10.35c-0.101-1.898-0.15-3.773-0.15-5.625c0-1.85,0.099-3.773,0.3-5.775
		c-3.101,4.2-6.325,8.051-9.675,11.55c-3.352,3.502-6.775,6.601-10.274,9.301c-0.802,0.4-1.5,0.675-2.101,0.824
		c-0.6,0.15-1.35,0.174-2.25,0.075c-0.501-0.201-0.951-0.375-1.35-0.524c-0.401-0.15-0.851-0.324-1.351-0.525
		c-1.102-0.6-1.852-1.224-2.25-1.875c-0.4-0.649-0.7-1.523-0.899-2.625c-0.101-2.7,0.323-6,1.274-9.9
		c0.949-3.899,2.3-7.725,4.051-11.475c1.748-3.75,3.773-7.174,6.074-10.275c2.3-3.098,4.699-5.25,7.2-6.449
		c1.5-0.8,3.15-1.625,4.95-2.476C554.711,463.518,556.561,463.192,558.461,463.392z M538.361,498.491
		c3.799-3.799,7.448-8.149,10.95-13.05c3.499-4.898,6.799-10.05,9.899-15.45c-0.7-0.3-1.251-0.398-1.649-0.3
		c-2.902,1.401-5.4,3.101-7.5,5.1c-2.101,2.002-3.926,4.275-5.476,6.825c-1.552,2.55-2.826,5.25-3.825,8.101
		C539.761,492.566,538.961,495.491,538.361,498.491z M568.062,493.842c-0.102,0.201-0.15,0.449-0.15,0.75
		C568.01,494.493,568.062,494.242,568.062,493.842z M584.261,424.842c0.099,0,0.15-0.05,0.15-0.15c0-0.199,0.049-0.398,0.15-0.6
		c0,0.101-0.102,0.25-0.301,0.449V424.842z"/>
	<path fill="#303031" d="M593.41,467.291c1.599-2.299,2.975-3.273,4.125-2.925c1.148,0.352,1.725,1.526,1.725,3.525
		c-0.801,4.5-1.551,8.801-2.25,12.899c-0.7,4.102-1.226,7.702-1.574,10.801c-0.352,3.101-0.45,5.625-0.301,7.574
		c0.15,1.95,0.773,2.977,1.875,3.075v0.15c1.299,0.501,2.899,0.626,4.801,0.375c1.898-0.249,3.874-0.8,5.925-1.65
		c2.048-0.849,4.073-1.898,6.075-3.149c1.999-1.25,3.799-2.675,5.399-4.275c0.9-0.3,1.699-0.35,2.4-0.15
		c0.698,0.202,1.249,0.551,1.649,1.051c0.398,0.501,0.601,1.125,0.601,1.875s-0.3,1.477-0.9,2.175
		c-7.102,5.7-13.125,9.551-18.075,11.55c-4.949,1.999-8.95,2.7-12,2.1c-3.051-0.6-5.2-2.224-6.449-4.875
		c-1.252-2.648-1.777-5.723-1.575-9.225c0.499-6.499,1.549-12.124,3.149-16.875C589.608,476.568,591.408,471.893,593.41,467.291z
		 M605.26,433.842c0.601,0.899,0.875,1.852,0.825,2.85c-0.052,1.001-0.325,1.852-0.825,2.55c-0.501,0.701-1.176,1.125-2.024,1.275
		c-0.851,0.149-1.776-0.124-2.775-0.825c-1.102-0.799-1.676-1.699-1.725-2.7c-0.052-0.998,0.225-1.875,0.825-2.625
		c0.6-0.75,1.398-1.224,2.399-1.425C602.959,432.742,604.061,433.042,605.26,433.842z"/>
</g>
</svg>
